<svg width="554" height="554" viewBox="0 0 554 554" fill="none" xmlns="http://www.w3.org/2000/svg">
<rect width="554" height="554" fill="#202020"/>
<path d="M394.699 268.419V268.361C394.67 267.912 394.626 267.463 394.592 267.01C394.558 266.556 394.52 266.045 394.476 265.587V265.476C394.241 262.926 393.918 260.396 393.508 257.888H365.402C364.032 257.883 362.688 258.265 361.527 258.989C360.365 259.713 359.432 260.749 358.837 261.979L349.352 281.226L338.047 233.412C337.663 231.77 336.72 230.312 335.379 229.285C334.037 228.259 332.38 227.727 330.69 227.78C328.999 227.834 327.379 228.469 326.106 229.579C324.832 230.688 323.984 232.203 323.706 233.865L315.068 284.67L306.271 208.236C306.084 206.45 305.237 204.798 303.894 203.6C302.552 202.401 300.811 201.743 299.009 201.753C297.209 201.743 295.469 202.399 294.127 203.594C292.786 204.79 291.937 206.439 291.746 208.222L275.677 345.335C275.513 346.716 275.905 348.106 276.767 349.2C277.629 350.294 278.891 351.003 280.276 351.172C280.482 351.196 280.689 351.207 280.896 351.205C282.187 351.202 283.431 350.726 284.393 349.869C285.355 349.012 285.968 347.833 286.115 346.555L298.946 236.861L307.177 308.254C307.377 309.998 308.202 311.612 309.501 312.799C310.8 313.986 312.485 314.665 314.247 314.713C316.009 314.76 317.728 314.173 319.09 313.058C320.452 311.943 321.363 310.376 321.658 308.645L331.419 251.241L341.126 292.374C341.47 293.837 342.261 295.159 343.389 296.157C344.517 297.156 345.927 297.782 347.427 297.95C348.926 298.118 350.441 297.819 351.763 297.096C353.086 296.372 354.151 295.259 354.813 293.908L367.358 268.443H381.37C381.573 271.105 381.684 273.788 381.684 276.503C381.755 301.695 372.631 326.053 356.013 345.038C339.394 364.024 316.414 376.342 291.354 379.698C266.295 383.053 240.866 377.217 219.806 363.277C198.746 349.337 183.491 328.243 176.883 303.927H163.259C169.898 331.882 186.626 356.428 210.258 372.888C233.889 389.348 262.772 396.572 291.404 393.183C320.036 389.795 346.417 376.032 365.521 354.515C384.625 332.997 395.117 305.231 394.999 276.503C394.98 273.768 394.878 271.081 394.699 268.419V268.419Z" fill="#121212"/>
<path d="M277.482 159C262.025 159.029 246.725 162.091 232.455 168.012C218.186 173.932 205.227 182.595 194.318 193.505C183.408 204.416 174.763 217.36 168.875 231.599C162.986 245.839 159.971 261.094 160 276.494C160 279.205 160.107 281.892 160.286 284.555C160.32 285.1 160.373 285.645 160.412 286.185C160.412 286.494 160.455 286.798 160.484 287.102C160.576 288.125 160.683 289.162 160.809 290.204V290.382C160.993 291.955 161.207 293.521 161.453 295.081H189.558C190.929 295.085 192.272 294.704 193.434 293.98C194.595 293.256 195.528 292.219 196.124 290.99L205.608 271.743L216.914 319.557C217.295 321.2 218.236 322.66 219.578 323.689C220.919 324.717 222.577 325.25 224.269 325.197C225.96 325.143 227.581 324.506 228.854 323.395C230.127 322.284 230.974 320.767 231.25 319.103L239.887 268.299L248.699 344.747C248.886 346.533 249.733 348.185 251.076 349.384C252.418 350.582 254.159 351.24 255.961 351.23C257.761 351.24 259.501 350.584 260.843 349.389C262.185 348.194 263.033 346.545 263.224 344.761L279.259 207.648C279.4 206.278 278.995 204.907 278.13 203.833C277.264 202.758 276.01 202.066 274.637 201.906C273.263 201.745 271.882 202.13 270.791 202.976C269.7 203.822 268.987 205.062 268.806 206.428L255.981 316.118L247.789 244.763C247.589 243.019 246.763 241.405 245.464 240.218C244.165 239.031 242.48 238.352 240.718 238.304C238.956 238.257 237.237 238.844 235.875 239.959C234.514 241.074 233.602 242.641 233.307 244.372L223.547 301.776L213.858 260.648C213.514 259.184 212.724 257.863 211.596 256.865C210.468 255.866 209.057 255.24 207.558 255.072C206.058 254.904 204.544 255.202 203.221 255.926C201.899 256.65 200.833 257.763 200.171 259.114L187.627 284.579H173.586C173.382 281.923 173.281 279.236 173.281 276.519C173.21 251.327 182.334 226.969 198.953 207.984C215.572 188.998 238.552 176.68 263.611 173.324C288.67 169.969 314.099 175.805 335.159 189.745C356.219 203.685 371.475 224.779 378.082 249.095H391.76C385.642 223.469 371.039 200.643 350.307 184.297C329.575 167.952 303.921 159.041 277.482 159V159Z" fill="#121212"/>
</svg>
