<svg width="23" height="20" viewBox="0 0 23 20" fill="none" xmlns="http://www.w3.org/2000/svg">
<path d="M1.70633 7.45493L5.0263 1.70475L5.33717 1.16629L5.67383 0.583161L6.01049 3.07584e-05L7.35724 3.08173e-05L7.97899 3.08445e-05L17.0321 3.12402e-05L16.0479 1.70475L14.6135 4.18907L13.9402 5.35545L12.5059 7.83976L11.5216 9.5446L0.5 9.5446L1.70633 7.45493Z" fill="#44FF9D"/>
<path d="M13.9397 13.7332L14.613 14.8996L16.0474 17.3839L17.0316 19.0888L7.97899 19.0888L7.35724 19.0888L6.01061 19.0888L5.67395 18.5056L5.33729 17.9224L5.02642 17.3839L1.70645 11.6337L0.5 9.54419L11.5211 9.54419L12.5054 11.2489L13.9397 13.7332Z" fill="#27EA84"/>
<path d="M19.408 4.18895L20.0813 5.35533L21.5157 7.83964L22.5 9.54448L21.5157 11.2492L20.0813 13.7335L19.408 14.8998L17.9736 17.3842L16.9894 19.0889L15.7829 16.9995L12.4629 11.2493L12.1521 10.7109L11.8154 10.1277L11.4788 9.5446L11.8154 8.96148L12.1521 8.37822L12.4629 7.83976L15.7829 2.08958L16.9893 3.07584e-05L17.9734 1.70475L19.4078 4.18907" fill="#27D078"/>
</svg>
