<svg width="22" height="22" viewBox="0 0 22 22" fill="none" xmlns="http://www.w3.org/2000/svg">
<path d="M6.10289e-05 11.0026C0.000624269 13.3256 0.736571 15.5887 2.10243 17.4677C3.46828 19.3467 5.39392 20.7451 7.60335 21.4624C9.81279 22.1797 12.1926 22.1791 14.4017 21.4607C16.6108 20.7424 18.5358 19.3431 19.9007 17.4635C21.2657 15.5838 22.0005 13.3203 22 10.9974C21.9995 8.67443 21.2635 6.41127 19.8977 4.53228C18.5318 2.65328 16.6062 1.25491 14.3968 0.537591C12.1874 -0.179732 9.80754 -0.179183 7.59844 0.539158C7.5138 1.20518 7.34328 1.85743 7.09112 2.47966L8.40762 1.39019L7.22176 3.6224C8.42823 3.15755 9.71093 2.92226 11.0038 2.92864C12.4394 2.92851 13.8489 3.31123 15.0873 4.03735C16.3256 4.76347 17.3479 5.80671 18.0487 7.05953C18.7496 8.31235 19.1036 9.7294 19.0743 11.1646C19.0451 12.5999 18.6336 14.0013 17.8823 15.2245C17.1309 16.4477 16.067 17.4484 14.8001 18.1235C13.5332 18.7985 12.1092 19.1235 10.6748 19.0648C9.24051 19.0062 7.84778 18.5661 6.64021 17.7899C5.43263 17.0137 4.45392 15.9295 3.80496 14.649C3.71618 14.474 3.63374 14.2939 3.5513 14.1138C3.49522 13.9991 3.42162 13.8938 3.33315 13.8018C3.14191 13.6187 3.02304 13.3729 2.99832 13.1093C2.88671 11.0166 3.7035 8.62584 3.71237 8.60174L3.81384 8.3075L3.80496 8.6195C3.80496 8.64613 3.73774 11.3045 4.63824 12.711C4.76507 12.9051 4.71687 13.141 4.67375 13.3706C4.63443 13.5786 4.59765 13.7751 4.68009 13.9337C5.78605 16.0593 7.7925 17.0499 10.9975 17.0499C11.7822 17.0479 12.5585 16.8875 13.2798 16.5785C14.0012 16.2695 14.6527 15.8181 15.1956 15.2514C16.3121 14.1175 16.938 12.5901 16.9382 10.9988C16.9365 9.42399 16.3103 7.91411 15.1968 6.80041C14.0833 5.68671 12.5736 5.06013 10.9988 5.05811C10.2784 5.05811 8.08928 5.05811 7.82801 5.86221C7.56674 6.66632 7.24459 6.77412 6.9402 6.86797C6.82307 6.89878 6.71082 6.94573 6.60664 7.00749C6.43542 7.1191 5.99532 8.05637 5.9801 8.63726C5.9801 8.80974 6.01054 8.92896 6.08283 8.98096L6.112 9.00126L6.10185 9.03804C6.07649 9.11414 5.58312 9.32975 5.1798 9.32087H5.1481C5.04663 9.32087 4.90838 9.32087 4.88302 9.24223C4.85765 9.1636 4.94516 9.07989 5.17345 8.94038C5.16077 8.92769 5.14175 8.91121 5.12653 8.89852C5.07326 8.8516 4.9997 8.79199 4.9997 8.71969C4.9993 8.70081 5.00282 8.68205 5.01002 8.66459C5.01722 8.64712 5.02796 8.63134 5.04155 8.61823C5.07688 8.58624 5.1177 8.56088 5.16204 8.5434C5.27746 8.48759 5.42204 8.41657 5.45882 8.10076C5.53746 7.43364 5.51336 6.64602 5.28507 6.38983C5.26518 6.36435 5.2398 6.34371 5.21081 6.32943C5.18181 6.31516 5.14996 6.30762 5.11765 6.30739C4.6915 6.30739 3.40545 7.12671 3.34203 7.52242C3.34063 7.55229 3.3322 7.58141 3.31744 7.60741C3.30267 7.63341 3.28198 7.65556 3.25706 7.67208C3.19491 7.69998 3.13023 7.65813 3.0592 7.61374C2.93237 7.5351 2.8512 7.49452 2.76242 7.6074C2.53666 7.8915 2.73578 8.23394 2.73832 8.24155L2.80427 8.35315L2.67744 8.3113C2.65208 8.30242 2.04329 8.09442 1.867 7.84457C1.85318 7.81961 1.83371 7.79823 1.81014 7.78216C1.78657 7.76608 1.75957 7.75574 1.73129 7.75198C1.66544 7.73853 1.60398 7.70889 1.55246 7.66574C1.50932 7.63475 1.47385 7.59429 1.44879 7.54746C1.42372 7.50063 1.40973 7.44867 1.40788 7.39559C1.42223 7.2655 1.4863 7.14598 1.58671 7.06202C1.63575 7.0284 1.6909 7.0047 1.74905 6.99227C1.88454 6.95937 2.01075 6.89604 2.11812 6.8071C2.26525 6.66722 2.43398 6.55201 2.61783 6.46593C2.77924 6.39247 2.92418 6.28721 3.04398 6.15646C3.28496 5.90914 3.6033 5.5946 3.7593 5.44494C3.53735 5.38026 3.42574 5.30036 3.40164 5.19128C3.35472 4.97694 3.6794 4.7182 4.17023 4.3263C5.05804 3.61859 6.38595 2.55068 6.85649 0.813111C4.82563 1.63101 3.08671 3.03915 1.86445 4.85559C0.642186 6.67203 -0.0072484 8.81327 6.10289e-05 11.0026ZM8.46089 7.44125H10.929C11.4024 7.43232 11.8729 7.51785 12.3129 7.69284C12.7529 7.86784 13.1536 8.12879 13.4915 8.46044C13.8295 8.79209 14.098 9.18778 14.2812 9.62439C14.4645 10.061 14.5589 10.5298 14.5589 11.0033C14.5589 11.4768 14.4645 11.9455 14.2812 12.3821C14.098 12.8188 13.8295 13.2145 13.4915 13.5461C13.1536 13.8778 12.7529 14.1387 12.3129 14.3137C11.8729 14.4887 11.4024 14.5742 10.929 14.5653H8.46089V7.44125ZM10.981 2.36805L10.9074 2.46317H10.8833C10.4775 2.4822 9.2409 2.538 8.19582 2.91215L7.87874 3.02629L11.9627 0.0762293L10.981 2.36805ZM15.1918 3.56152L15.1715 3.55137C14.81 3.36493 13.7129 2.79039 12.6196 2.59761L12.2886 2.538L17.2997 2.02434L15.3122 3.50698L15.1918 3.56152ZM18.3511 6.6549L18.3397 6.63588C18.1203 6.29344 17.4519 5.25216 16.6072 4.5343L16.3535 4.31616L20.946 6.37334L18.4767 6.66632L18.3511 6.6549ZM18.9776 7.88769L21.9277 11.9716L19.6448 10.9925L19.5395 10.9139V10.891C19.5205 10.4852 19.4647 9.24984 19.0905 8.20476L18.9776 7.88769ZM18.4538 15.1779C18.6403 14.8164 19.2148 13.7181 19.4076 12.6261L19.4685 12.295L19.9758 17.3061L18.4931 15.306L18.4462 15.1944L18.4538 15.1779ZM15.3503 18.3575L15.3693 18.3461C15.7118 18.1267 16.753 17.4583 17.4709 16.6123L17.689 16.3587L15.6281 20.955L15.3351 18.4919L15.3503 18.3575ZM11.0102 19.6512L11.0888 19.5459H11.1116C11.5175 19.5269 12.7528 19.4711 13.7979 19.0957L14.115 18.9828L10.0311 21.9328L11.0102 19.6512ZM6.80576 18.4476L6.82478 18.4577C7.18625 18.6441 8.2846 19.2187 9.3766 19.4115L9.70763 19.4711L4.69658 19.9847L6.684 18.4996L6.80576 18.4476ZM3.50818 15.339L3.63501 15.3542L3.64769 15.3732C3.86584 15.7156 4.5355 16.7569 5.38019 17.4748L5.63385 17.6929L1.05275 15.6319L3.50818 15.339Z" fill="#8200DC"/>
</svg>
