<svg xmlns="http://www.w3.org/2000/svg" width="16" height="15" viewBox="0 0 16 15">
    <defs>
        <style>
            .cls-1{fill:#fff}
        </style>
    </defs>
    <g id="그룹_1990" data-name="그룹 1990" transform="translate(-3407.527 -2831.407)">
        <path id="패스_496" d="M3443.635 2863.034l-5.538-3.458a.566.566 0 0 0-.6 0l-5.538 3.458a.616.616 0 0 0-.284.521v8.061a.6.6 0 0 0 .587.609h4.185a.6.6 0 0 0 .587-.609v-2.957h1.532v2.957a.6.6 0 0 0 .587.609h4.185a.6.6 0 0 0 .587-.609v-8.061a.617.617 0 0 0-.29-.521zm-4.488 4.408h-2.705a.6.6 0 0 0-.587.609v2.957h-3.012v-7.108l4.951-3.092 4.951 3.092v7.108h-3.012v-2.957a.6.6 0 0 0-.586-.609z" class="cls-1" data-name="패스 496" transform="translate(-22.268 -25.818)"/>
        <path id="패스_497" d="M3423.243 2836.124l-7.414-4.629a.567.567 0 0 0-.6 0l-7.414 4.629a.623.623 0 0 0-.2.835.575.575 0 0 0 .805.208l7.111-4.44 7.111 4.44a.567.567 0 0 0 .3.087.586.586 0 0 0 .5-.3.622.622 0 0 0-.199-.83z" class="cls-1" data-name="패스 497"/>
    </g>
</svg>
