<svg id="그룹_1" data-name="그룹 1" xmlns="http://www.w3.org/2000/svg" width="16" height="16" viewBox="0 0 16 16">
  <g id="그룹_770" data-name="그룹 770" transform="translate(1641.026 -141.35)">
    <path id="패스_550" fill="#2aea86" data-name="패스 550" d="M-1625.438,151.2h0v0c0-.029,0-.057-.007-.086s0-.06-.007-.09v-.007h0c-.015-.162-.035-.321-.06-.479h-1.782a.46.46,0,0,0-.416.259l-.6,1.221-.717-3.034a.464.464,0,0,0-.559-.344.465.465,0,0,0-.35.373l-.548,3.222-.559-4.848a.46.46,0,0,0-.461-.411h0a.459.459,0,0,0-.461.41l-1.019,8.694a.334.334,0,0,0,.29.373h0a.241.241,0,0,0,.039,0,.334.334,0,0,0,.331-.295l.814-6.957.522,4.524a.464.464,0,0,0,.514.408.465.465,0,0,0,.4-.384l.619-3.641.617,2.608a.464.464,0,0,0,.558.345.465.465,0,0,0,.31-.247l.8-1.615h.889c.013.169.02.339.02.511a6.611,6.611,0,0,1-6.611,6.612,6.611,6.611,0,0,1-6.379-4.873h-.868a7.452,7.452,0,0,0,8.98,5.514,7.452,7.452,0,0,0,5.719-7.253C-1625.42,151.537-1625.428,151.367-1625.438,151.2Z" transform="translate(-0.179 -2.385)"/>
    <path id="패스_551" fill="#2aea86" data-name="패스 551" d="M-1633.051,141.873a7.451,7.451,0,0,0-7.451,7.451c0,.172.007.342.018.511h0c0,.035.005.069.008.1a.516.516,0,0,0,0,.058c.006.066.013.132.02.2v.011h0c.012.1.025.2.041.3h1.783a.461.461,0,0,0,.416-.259l.6-1.221.717,3.034a.464.464,0,0,0,.558.346.464.464,0,0,0,.352-.375l.548-3.222.559,4.848a.458.458,0,0,0,.461.411h0a.459.459,0,0,0,.461-.41l1.017-8.7a.334.334,0,0,0-.3-.362.333.333,0,0,0-.36.284l-.814,6.957-.521-4.524a.464.464,0,0,0-.514-.408.463.463,0,0,0-.4.383l-.619,3.641-.617-2.608a.464.464,0,0,0-.558-.345.465.465,0,0,0-.31.246l-.8,1.615h-.889c-.013-.168-.02-.338-.02-.511a6.611,6.611,0,0,1,6.61-6.612,6.612,6.612,0,0,1,6.38,4.873h.867A7.452,7.452,0,0,0-1633.051,141.873Z"/>
  </g>
  <rect id="사각형_1" data-name="사각형 1" width="16" height="16" fill="none"/>
</svg>
