<svg width="22" height="22" viewBox="0 0 22 22" fill="none" xmlns="http://www.w3.org/2000/svg">
<path d="M11 22C17.0751 22 22 17.0751 22 11C22 4.92487 17.0751 0 11 0C4.92487 0 0 4.92487 0 11C0 17.0751 4.92487 22 11 22Z" fill="url(#paint0_radial_31_1752)"/>
<path d="M6.2333 4.125C6.35485 4.125 6.4714 4.17332 6.55735 4.25928C6.64331 4.34523 6.69163 4.46178 6.69163 4.58333V6.41667C6.69163 6.53822 6.64331 6.65477 6.55735 6.74072C6.4714 6.82668 6.35485 6.875 6.2333 6.875C6.11174 6.875 5.99519 6.82668 5.90924 6.74072C5.82329 6.65477 5.77496 6.53822 5.77496 6.41667V4.58333C5.77496 4.46178 5.82329 4.34523 5.90924 4.25928C5.99519 4.17332 6.11174 4.125 6.2333 4.125Z" fill="white"/>
<path d="M6.2333 9.625C6.35485 9.625 6.4714 9.67332 6.55735 9.75928C6.64331 9.84523 6.69163 9.96178 6.69163 10.0833V11.9167C6.69163 12.0382 6.64331 12.1548 6.55735 12.2407C6.4714 12.3267 6.35485 12.375 6.2333 12.375C6.11174 12.375 5.99519 12.3267 5.90924 12.2407C5.82329 12.1548 5.77496 12.0382 5.77496 11.9167V10.0833C5.77496 9.96178 5.82329 9.84523 5.90924 9.75928C5.99519 9.67332 6.11174 9.625 6.2333 9.625Z" fill="white"/>
<path d="M2.65831 10.3125C2.59894 10.2067 2.58404 10.0818 2.61669 9.96493C2.64933 9.84809 2.72681 9.74891 2.83243 9.68922L4.41824 8.77255C4.46976 8.74154 4.527 8.72106 4.58654 8.71257C4.64607 8.70409 4.70654 8.70771 4.76468 8.72309C4.82281 8.73848 4.87737 8.76549 4.92491 8.80232C4.97245 8.83914 5.0123 8.88505 5.04174 8.93749C5.07275 8.98901 5.09278 9.04625 5.10127 9.10578C5.10975 9.16532 5.10636 9.22602 5.09097 9.28415C5.07558 9.34228 5.04857 9.39662 5.01175 9.44416C4.97492 9.4917 4.92902 9.53133 4.87657 9.56076L3.29076 10.4774C3.18468 10.538 3.05895 10.5548 2.94074 10.524C2.82253 10.4931 2.72128 10.4172 2.65831 10.3125Z" fill="white"/>
<path d="M7.41577 7.56238C7.38476 7.51086 7.36427 7.45362 7.35579 7.39408C7.34731 7.33455 7.35115 7.27385 7.36653 7.21572C7.38192 7.15759 7.40848 7.10325 7.44531 7.0557C7.48214 7.00816 7.52849 6.96854 7.58093 6.93911L9.16675 6.02244C9.27283 5.96185 9.3981 5.94505 9.51631 5.97589C9.63453 6.00673 9.73623 6.08269 9.79919 6.18738C9.85857 6.29317 9.87347 6.41809 9.84082 6.53493C9.80817 6.65178 9.7307 6.75095 9.62508 6.81065L8.03926 7.72732C7.98774 7.75833 7.9305 7.77881 7.87097 7.78729C7.81144 7.79578 7.75051 7.79216 7.69238 7.77677C7.63425 7.76139 7.58013 7.73438 7.53259 7.69755C7.48505 7.66073 7.4452 7.61482 7.41577 7.56238Z" fill="white"/>
<path d="M7.41577 8.93749C7.4452 8.88505 7.48505 8.83914 7.53259 8.80232C7.58013 8.76549 7.63425 8.73848 7.69238 8.72309C7.75051 8.70771 7.81144 8.70409 7.87097 8.71257C7.9305 8.72106 7.98774 8.74154 8.03926 8.77255L9.62508 9.68922C9.67828 9.71786 9.72519 9.75684 9.76294 9.80403C9.80068 9.85121 9.82814 9.90562 9.8444 9.96382C9.86066 10.022 9.8652 10.0829 9.85738 10.1429C9.84956 10.2028 9.82984 10.2604 9.79919 10.3125C9.73623 10.4172 9.63453 10.4931 9.51631 10.524C9.3981 10.5548 9.27283 10.538 9.16675 10.4774L7.58093 9.56076C7.52849 9.53133 7.48214 9.4917 7.44531 9.44416C7.40848 9.39662 7.38192 9.34228 7.36653 9.28415C7.35115 9.22602 7.34731 9.16532 7.35579 9.10578C7.36427 9.04625 7.38476 8.98901 7.41577 8.93749Z" fill="white"/>
<path d="M2.65854 6.18738C2.7215 6.08269 2.82275 6.00673 2.94097 5.97589C3.05918 5.94505 3.1849 5.96185 3.29098 6.02244L4.8768 6.93911C4.92924 6.96854 4.97514 7.00816 5.01197 7.0557C5.0488 7.10325 5.07581 7.15759 5.09119 7.21572C5.10658 7.27385 5.10997 7.33455 5.10149 7.39408C5.09301 7.45362 5.07297 7.51086 5.04196 7.56238C5.01253 7.61482 4.97268 7.66073 4.92514 7.69755C4.8776 7.73438 4.82303 7.76139 4.7649 7.77677C4.70677 7.79216 4.64629 7.79578 4.58676 7.78729C4.52722 7.77881 4.46999 7.75833 4.41846 7.72732L2.83265 6.81065C2.72882 6.74928 2.6525 6.6502 2.62004 6.53404C2.58759 6.41787 2.60155 6.29368 2.65854 6.18738Z" fill="white"/>
<path d="M6.2333 15.125C6.35485 15.125 6.4714 15.1733 6.55735 15.2593C6.64331 15.3452 6.69163 15.4618 6.69163 15.5833V17.4167C6.69163 17.5382 6.64331 17.6548 6.55735 17.7407C6.4714 17.8267 6.35485 17.875 6.2333 17.875C6.11174 17.875 5.99519 17.8267 5.90924 17.7407C5.82329 17.6548 5.77496 17.5382 5.77496 17.4167V15.5833C5.77496 15.4618 5.82329 15.3452 5.90924 15.2593C5.99519 15.1733 6.11174 15.125 6.2333 15.125Z" fill="white"/>
<path d="M2.65831 15.8125C2.59894 15.7067 2.58404 15.5818 2.61669 15.4649C2.64933 15.3481 2.72681 15.2489 2.83243 15.1892L4.41824 14.2726C4.46976 14.2415 4.527 14.2211 4.58654 14.2126C4.64607 14.2041 4.70654 14.2077 4.76468 14.2231C4.82281 14.2385 4.87737 14.2655 4.92491 14.3023C4.97245 14.3391 5.0123 14.385 5.04174 14.4375C5.07275 14.489 5.09278 14.5463 5.10127 14.6058C5.10975 14.6653 5.10636 14.726 5.09097 14.7841C5.07558 14.8423 5.04857 14.8966 5.01175 14.9442C4.97492 14.9917 4.92902 15.0313 4.87657 15.0608L3.29076 15.9774C3.18468 16.038 3.05895 16.0548 2.94074 16.024C2.82253 15.9931 2.72128 15.9172 2.65831 15.8125Z" fill="white"/>
<path d="M7.41577 13.0624C7.38476 13.0109 7.36427 12.9536 7.35579 12.8941C7.34731 12.8346 7.35115 12.7739 7.36653 12.7157C7.38192 12.6576 7.40848 12.6032 7.44531 12.5557C7.48214 12.5082 7.52849 12.4685 7.58093 12.4391L9.16675 11.5224C9.27283 11.4618 9.3981 11.4451 9.51631 11.4759C9.63453 11.5067 9.73623 11.5827 9.79919 11.6874C9.85857 11.7932 9.87347 11.9181 9.84082 12.0349C9.80817 12.1518 9.7307 12.251 9.62508 12.3106L8.03926 13.2273C7.98774 13.2583 7.9305 13.2788 7.87097 13.2873C7.81144 13.2958 7.75051 13.2922 7.69238 13.2768C7.63425 13.2614 7.58013 13.2344 7.53259 13.1976C7.48505 13.1607 7.4452 13.1148 7.41577 13.0624Z" fill="white"/>
<path d="M7.41577 14.4375C7.4452 14.385 7.48505 14.3391 7.53259 14.3023C7.58013 14.2655 7.63425 14.2385 7.69238 14.2231C7.75051 14.2077 7.81144 14.2041 7.87097 14.2126C7.9305 14.2211 7.98774 14.2415 8.03926 14.2726L9.62508 15.1892C9.67828 15.2179 9.72519 15.2568 9.76294 15.304C9.80068 15.3512 9.82814 15.4056 9.8444 15.4638C9.86066 15.522 9.8652 15.5829 9.85738 15.6429C9.84956 15.7028 9.82984 15.7604 9.79919 15.8125C9.73623 15.9172 9.63453 15.9931 9.51631 16.024C9.3981 16.0548 9.27283 16.038 9.16675 15.9774L7.58093 15.0608C7.52849 15.0313 7.48214 14.9917 7.44531 14.9442C7.40848 14.8966 7.38192 14.8423 7.36653 14.7841C7.35115 14.726 7.34731 14.6653 7.35579 14.6058C7.36427 14.5463 7.38476 14.489 7.41577 14.4375Z" fill="white"/>
<path d="M2.65854 11.6874C2.7215 11.5827 2.82275 11.5067 2.94097 11.4759C3.05918 11.4451 3.1849 11.4618 3.29098 11.5224L4.8768 12.4391C4.92924 12.4685 4.97514 12.5082 5.01197 12.5557C5.0488 12.6032 5.07581 12.6576 5.09119 12.7157C5.10658 12.7739 5.10997 12.8346 5.10149 12.8941C5.09301 12.9536 5.07297 13.0109 5.04196 13.0624C5.01253 13.1148 4.97268 13.1607 4.92514 13.1976C4.8776 13.2344 4.82303 13.2614 4.7649 13.2768C4.70677 13.2922 4.64629 13.2958 4.58676 13.2873C4.52722 13.2788 4.46999 13.2583 4.41846 13.2273L2.83265 12.3106C2.72882 12.2493 2.6525 12.1502 2.62004 12.034C2.58759 11.9179 2.60155 11.7937 2.65854 11.6874Z" fill="white"/>
<path d="M11.0001 1.375C11.1217 1.375 11.2382 1.42332 11.3242 1.50928C11.4102 1.59523 11.4585 1.71178 11.4585 1.83333V3.66667C11.4585 3.78822 11.4102 3.90477 11.3242 3.99072C11.2382 4.07668 11.1217 4.125 11.0001 4.125C10.8786 4.125 10.762 4.07668 10.6761 3.99072C10.5901 3.90477 10.5418 3.78822 10.5418 3.66667V1.83333C10.5418 1.71178 10.5901 1.59523 10.6761 1.50928C10.762 1.42332 10.8786 1.375 11.0001 1.375Z" fill="white"/>
<path d="M11.0001 6.875C11.1217 6.875 11.2382 6.92332 11.3242 7.00928C11.4102 7.09523 11.4585 7.21178 11.4585 7.33333V9.16667C11.4585 9.28822 11.4102 9.40477 11.3242 9.49072C11.2382 9.57668 11.1217 9.625 11.0001 9.625C10.8786 9.625 10.762 9.57668 10.6761 9.49072C10.5901 9.40477 10.5418 9.28822 10.5418 9.16667V7.33333C10.5418 7.21178 10.5901 7.09523 10.6761 7.00928C10.762 6.92332 10.8786 6.875 11.0001 6.875Z" fill="white"/>
<path d="M12.1916 4.81249C12.1605 4.76097 12.1401 4.70373 12.1316 4.6442C12.1231 4.58466 12.1269 4.52396 12.1423 4.46583C12.1577 4.4077 12.1847 4.35336 12.2215 4.30582C12.2584 4.25828 12.3043 4.21865 12.3567 4.18922L13.9425 3.27255C13.9941 3.24154 14.0513 3.22106 14.1108 3.21257C14.1704 3.20409 14.2308 3.20771 14.289 3.22309C14.3471 3.23848 14.4017 3.26549 14.4492 3.30232C14.4967 3.33914 14.5361 3.38505 14.5656 3.43749C14.5966 3.48901 14.6171 3.54625 14.6256 3.60578C14.634 3.66532 14.6307 3.72602 14.6153 3.78415C14.5999 3.84228 14.5729 3.89662 14.536 3.94416C14.4992 3.9917 14.4533 4.03133 14.4009 4.06076L12.8151 4.97743C12.7635 5.00844 12.7063 5.02892 12.6468 5.0374C12.5872 5.04589 12.5263 5.04227 12.4682 5.02689C12.41 5.0115 12.3559 4.98449 12.3084 4.94766C12.2608 4.91084 12.221 4.86493 12.1916 4.81249Z" fill="white"/>
<path d="M12.1916 6.18749C12.221 6.13505 12.2608 6.08914 12.3084 6.05232C12.3559 6.01549 12.41 5.98848 12.4682 5.97309C12.5263 5.95771 12.5872 5.95409 12.6468 5.96257C12.7063 5.97106 12.7635 5.99154 12.8151 6.02255L14.4009 6.93922C14.4533 6.96865 14.4992 7.00828 14.536 7.05582C14.5729 7.10336 14.5999 7.1577 14.6153 7.21583C14.6307 7.27396 14.634 7.33466 14.6256 7.3942C14.6171 7.45373 14.5966 7.51097 14.5656 7.56249C14.5361 7.61493 14.4967 7.66084 14.4492 7.69766C14.4017 7.73449 14.3471 7.7615 14.289 7.77689C14.2308 7.79227 14.1704 7.79589 14.1108 7.7874C14.0513 7.77892 13.9941 7.75844 13.9425 7.72743L12.3567 6.81076C12.3043 6.78133 12.2584 6.7417 12.2215 6.69416C12.1847 6.64662 12.1577 6.59228 12.1423 6.53415C12.1269 6.47602 12.1231 6.41532 12.1316 6.35578C12.1401 6.29625 12.1605 6.23901 12.1916 6.18749Z" fill="white"/>
<path d="M7.41577 3.43749C7.4452 3.38505 7.48505 3.33914 7.53259 3.30232C7.58013 3.26549 7.63425 3.23848 7.69238 3.22309C7.75051 3.20771 7.81144 3.20409 7.87097 3.21257C7.9305 3.22106 7.98774 3.24154 8.03926 3.27255L9.62508 4.18922C9.67828 4.21786 9.72519 4.25684 9.76294 4.30403C9.80068 4.35121 9.82814 4.40562 9.8444 4.46382C9.86066 4.52201 9.8652 4.58293 9.85738 4.64285C9.84956 4.70277 9.82984 4.76041 9.79919 4.81249C9.73623 4.91718 9.63453 4.99314 9.51631 5.02398C9.3981 5.05481 9.27283 5.03802 9.16675 4.97743L7.58093 4.06076C7.52849 4.03133 7.48214 3.9917 7.44531 3.94416C7.40848 3.89662 7.38192 3.84228 7.36653 3.78415C7.35115 3.72602 7.34731 3.66532 7.35579 3.60578C7.36427 3.54625 7.38476 3.48901 7.41577 3.43749Z" fill="white"/>
<path d="M11.0001 12.375C11.1217 12.375 11.2382 12.4233 11.3242 12.5093C11.4102 12.5952 11.4585 12.7118 11.4585 12.8333V14.6667C11.4585 14.7882 11.4102 14.9048 11.3242 14.9907C11.2382 15.0767 11.1217 15.125 11.0001 15.125C10.8786 15.125 10.762 15.0767 10.6761 14.9907C10.5901 14.9048 10.5418 14.7882 10.5418 14.6667V12.8333C10.5418 12.7118 10.5901 12.5952 10.6761 12.5093C10.762 12.4233 10.8786 12.375 11.0001 12.375Z" fill="white"/>
<path d="M12.1916 10.3125C12.1605 10.261 12.1401 10.2037 12.1316 10.1442C12.1231 10.0847 12.1269 10.024 12.1423 9.96583C12.1577 9.9077 12.1847 9.85336 12.2215 9.80582C12.2584 9.75828 12.3043 9.71865 12.3567 9.68922L13.9425 8.77255C13.9941 8.74154 14.0513 8.72106 14.1108 8.71257C14.1704 8.70409 14.2308 8.70771 14.289 8.72309C14.3471 8.73848 14.4017 8.76549 14.4492 8.80232C14.4967 8.83914 14.5361 8.88505 14.5656 8.93749C14.5966 8.98901 14.6171 9.04625 14.6256 9.10578C14.634 9.16532 14.6307 9.22602 14.6153 9.28415C14.5999 9.34228 14.5729 9.39662 14.536 9.44416C14.4992 9.4917 14.4533 9.53133 14.4009 9.56076L12.8151 10.4774C12.7635 10.5084 12.7063 10.5289 12.6468 10.5374C12.5872 10.5459 12.5263 10.5423 12.4682 10.5269C12.41 10.5115 12.3559 10.4845 12.3084 10.4477C12.2608 10.4108 12.221 10.3649 12.1916 10.3125Z" fill="white"/>
<path d="M12.1916 11.6875C12.221 11.635 12.2608 11.5891 12.3084 11.5523C12.3559 11.5155 12.41 11.4885 12.4682 11.4731C12.5263 11.4577 12.5872 11.4541 12.6468 11.4626C12.7063 11.4711 12.7635 11.4915 12.8151 11.5226L14.4009 12.4392C14.4533 12.4686 14.4992 12.5083 14.536 12.5558C14.5729 12.6034 14.5999 12.6577 14.6153 12.7158C14.6307 12.774 14.634 12.8347 14.6256 12.8942C14.6171 12.9537 14.5966 13.011 14.5656 13.0625C14.5361 13.1149 14.4967 13.1608 14.4492 13.1977C14.4017 13.2345 14.3471 13.2615 14.289 13.2769C14.2308 13.2923 14.1704 13.2959 14.1108 13.2874C14.0513 13.2789 13.9941 13.2584 13.9425 13.2274L12.3567 12.3108C12.3043 12.2813 12.2584 12.2417 12.2215 12.1942C12.1847 12.1466 12.1577 12.0923 12.1423 12.0341C12.1269 11.976 12.1231 11.9153 12.1316 11.8558C12.1401 11.7963 12.1605 11.739 12.1916 11.6875Z" fill="white"/>
<path d="M11.0001 17.875C11.1217 17.875 11.2382 17.9233 11.3242 18.0093C11.4102 18.0952 11.4585 18.2118 11.4585 18.3333V20.1667C11.4585 20.2882 11.4102 20.4048 11.3242 20.4907C11.2382 20.5767 11.1217 20.625 11.0001 20.625C10.8786 20.625 10.762 20.5767 10.6761 20.4907C10.5901 20.4048 10.5418 20.2882 10.5418 20.1667V18.3333C10.5418 18.2118 10.5901 18.0952 10.6761 18.0093C10.762 17.9233 10.8786 17.875 11.0001 17.875Z" fill="white"/>
<path d="M7.41577 18.5624C7.38476 18.5109 7.36427 18.4536 7.35579 18.3941C7.34731 18.3346 7.35115 18.2739 7.36653 18.2157C7.38192 18.1576 7.40848 18.1032 7.44531 18.0557C7.48214 18.0082 7.52849 17.9685 7.58093 17.9391L9.16675 17.0224C9.27283 16.9618 9.3981 16.9451 9.51631 16.9759C9.63453 17.0067 9.73623 17.0827 9.79919 17.1874C9.85857 17.2932 9.87347 17.4181 9.84082 17.5349C9.80817 17.6518 9.7307 17.751 9.62508 17.8106L8.03926 18.7273C7.98774 18.7583 7.9305 18.7788 7.87097 18.7873C7.81144 18.7958 7.75051 18.7922 7.69238 18.7768C7.63425 18.7614 7.58013 18.7344 7.53259 18.6976C7.48505 18.6607 7.4452 18.6148 7.41577 18.5624Z" fill="white"/>
<path d="M12.1916 15.8125C12.1605 15.761 12.1401 15.7037 12.1316 15.6442C12.1231 15.5847 12.1269 15.524 12.1423 15.4658C12.1577 15.4077 12.1847 15.3534 12.2215 15.3058C12.2584 15.2583 12.3043 15.2186 12.3567 15.1892L13.9425 14.2726C13.9941 14.2415 14.0513 14.2211 14.1108 14.2126C14.1704 14.2041 14.2308 14.2077 14.289 14.2231C14.3471 14.2385 14.4017 14.2655 14.4492 14.3023C14.4967 14.3391 14.5361 14.385 14.5656 14.4375C14.5966 14.489 14.6171 14.5463 14.6256 14.6058C14.634 14.6653 14.6307 14.726 14.6153 14.7841C14.5999 14.8423 14.5729 14.8966 14.536 14.9442C14.4992 14.9917 14.4533 15.0313 14.4009 15.0608L12.8151 15.9774C12.7635 16.0084 12.7063 16.0289 12.6468 16.0374C12.5872 16.0459 12.5263 16.0423 12.4682 16.0269C12.41 16.0115 12.3559 15.9845 12.3084 15.9477C12.2608 15.9108 12.221 15.8649 12.1916 15.8125Z" fill="white"/>
<path d="M12.1916 17.1875C12.221 17.135 12.2608 17.0891 12.3084 17.0523C12.3559 17.0155 12.41 16.9885 12.4682 16.9731C12.5263 16.9577 12.5872 16.9541 12.6468 16.9626C12.7063 16.9711 12.7635 16.9915 12.8151 17.0226L14.4009 17.9392C14.4533 17.9686 14.4992 18.0083 14.536 18.0558C14.5729 18.1034 14.5999 18.1577 14.6153 18.2158C14.6307 18.274 14.634 18.3347 14.6256 18.3942C14.6171 18.4537 14.5966 18.511 14.5656 18.5625C14.5361 18.6149 14.4967 18.6608 14.4492 18.6977C14.4017 18.7345 14.3471 18.7615 14.289 18.7769C14.2308 18.7923 14.1704 18.7959 14.1108 18.7874C14.0513 18.7789 13.9941 18.7584 13.9425 18.7274L12.3567 17.8108C12.3043 17.7813 12.2584 17.7417 12.2215 17.6942C12.1847 17.6466 12.1577 17.5923 12.1423 17.5341C12.1269 17.476 12.1231 17.4153 12.1316 17.3558C12.1401 17.2963 12.1605 17.239 12.1916 17.1875Z" fill="white"/>
<path d="M7.41577 14.4375C7.4452 14.385 7.48505 14.3391 7.53259 14.3023C7.58013 14.2655 7.63425 14.2385 7.69238 14.2231C7.75051 14.2077 7.81144 14.2041 7.87097 14.2126C7.9305 14.2211 7.98774 14.2415 8.03926 14.2726L9.62508 15.1892C9.67828 15.2179 9.72519 15.2568 9.76294 15.304C9.80068 15.3512 9.82814 15.4056 9.8444 15.4638C9.86066 15.522 9.8652 15.5829 9.85738 15.6429C9.84956 15.7028 9.82984 15.7604 9.79919 15.8125C9.73623 15.9172 9.63453 15.9931 9.51631 16.024C9.3981 16.0548 9.27283 16.038 9.16675 15.9774L7.58093 15.0608C7.52849 15.0313 7.48214 14.9917 7.44531 14.9442C7.40848 14.8966 7.38192 14.8423 7.36653 14.7841C7.35115 14.726 7.34731 14.6653 7.35579 14.6058C7.36427 14.5463 7.38476 14.489 7.41577 14.4375Z" fill="white"/>
<path d="M15.7576 4.125C15.8791 4.125 15.9957 4.17332 16.0816 4.25928C16.1676 4.34523 16.2159 4.46178 16.2159 4.58333V6.41667C16.2159 6.53822 16.1676 6.65477 16.0816 6.74072C15.9957 6.82668 15.8791 6.875 15.7576 6.875C15.636 6.875 15.5195 6.82668 15.4335 6.74072C15.3476 6.65477 15.2993 6.53822 15.2993 6.41667V4.58333C15.2993 4.46178 15.3476 4.34523 15.4335 4.25928C15.5195 4.17332 15.636 4.125 15.7576 4.125Z" fill="white"/>
<path d="M15.7576 9.625C15.8791 9.625 15.9957 9.67332 16.0816 9.75928C16.1676 9.84523 16.2159 9.96178 16.2159 10.0833V11.9167C16.2159 12.0382 16.1676 12.1548 16.0816 12.2407C15.9957 12.3267 15.8791 12.375 15.7576 12.375C15.636 12.375 15.5195 12.3267 15.4335 12.2407C15.3476 12.1548 15.2993 12.0382 15.2993 11.9167V10.0833C15.2993 9.96178 15.3476 9.84523 15.4335 9.75928C15.5195 9.67332 15.636 9.625 15.7576 9.625Z" fill="white"/>
<path d="M16.9491 7.56249C16.889 7.4578 16.8726 7.33366 16.9035 7.21695C16.9344 7.10024 17.0102 7.00044 17.1143 6.93922L18.709 6.02255C18.7606 5.99154 18.8178 5.97106 18.8773 5.96257C18.9369 5.95409 18.9978 5.95771 19.0559 5.97309C19.1141 5.98848 19.1682 6.01549 19.2157 6.05232C19.2633 6.08914 19.3031 6.13505 19.3325 6.18749C19.3635 6.23901 19.384 6.29625 19.3925 6.35578C19.401 6.41532 19.3972 6.47602 19.3818 6.53415C19.3664 6.59228 19.3398 6.64662 19.303 6.69416C19.2662 6.7417 19.2198 6.78133 19.1674 6.81076L17.5726 7.72743C17.4679 7.78757 17.3438 7.80398 17.2271 7.77308C17.1104 7.74219 17.0103 7.66655 16.9491 7.56249Z" fill="white"/>
<path d="M16.9491 8.93755C17.0103 8.8335 17.1104 8.75785 17.2271 8.72696C17.3438 8.69607 17.4679 8.71248 17.5726 8.77261L19.1674 9.68928C19.2198 9.71871 19.2662 9.75834 19.303 9.80588C19.3398 9.85342 19.3664 9.90776 19.3818 9.96589C19.3972 10.024 19.401 10.0847 19.3925 10.1443C19.384 10.2038 19.3635 10.261 19.3325 10.3126C19.3031 10.365 19.2633 10.4109 19.2157 10.4477C19.1682 10.4845 19.1141 10.5116 19.0559 10.5269C18.9978 10.5423 18.9369 10.5459 18.8773 10.5375C18.8178 10.529 18.7606 10.5085 18.709 10.4775L17.1143 9.56082C17.0102 9.4996 16.9344 9.3998 16.9035 9.28309C16.8726 9.16638 16.889 9.04224 16.9491 8.93755Z" fill="white"/>
<path d="M15.7576 15.125C15.8791 15.125 15.9957 15.1733 16.0816 15.2593C16.1676 15.3452 16.2159 15.4618 16.2159 15.5833V17.4167C16.2159 17.5382 16.1676 17.6548 16.0816 17.7407C15.9957 17.8267 15.8791 17.875 15.7576 17.875C15.636 17.875 15.5195 17.8267 15.4335 17.7407C15.3476 17.6548 15.2993 17.5382 15.2993 17.4167V15.5833C15.2993 15.4618 15.3476 15.3452 15.4335 15.2593C15.5195 15.1733 15.636 15.125 15.7576 15.125Z" fill="white"/>
<path d="M16.9491 13.0625C16.889 12.9578 16.8726 12.8337 16.9035 12.7169C16.9344 12.6002 17.0102 12.5004 17.1143 12.4392L18.709 11.5226C18.7606 11.4915 18.8178 11.4711 18.8773 11.4626C18.9369 11.4541 18.9978 11.4577 19.0559 11.4731C19.1141 11.4885 19.1682 11.5155 19.2157 11.5523C19.2633 11.5891 19.3031 11.635 19.3325 11.6875C19.3635 11.739 19.384 11.7963 19.3925 11.8558C19.401 11.9153 19.3972 11.976 19.3818 12.0341C19.3664 12.0923 19.3398 12.1466 19.303 12.1942C19.2662 12.2417 19.2198 12.2813 19.1674 12.3108L17.5726 13.2274C17.4679 13.2876 17.3438 13.304 17.2271 13.2731C17.1104 13.2422 17.0103 13.1665 16.9491 13.0625Z" fill="white"/>
<path d="M16.9491 14.4376C17.0103 14.3335 17.1104 14.2579 17.2271 14.227C17.3438 14.1961 17.4679 14.2125 17.5726 14.2726L19.1674 15.1893C19.2198 15.2187 19.2662 15.2583 19.303 15.3059C19.3398 15.3534 19.3664 15.4078 19.3818 15.4659C19.3972 15.524 19.401 15.5847 19.3925 15.6443C19.384 15.7038 19.3635 15.761 19.3325 15.8126C19.3031 15.865 19.2633 15.9109 19.2157 15.9477C19.1682 15.9845 19.1141 16.0116 19.0559 16.0269C18.9978 16.0423 18.9369 16.0459 18.8773 16.0375C18.8178 16.029 18.7606 16.0085 18.709 15.9775L17.1143 15.0608C17.0102 14.9996 16.9344 14.8998 16.9035 14.7831C16.8726 14.6664 16.889 14.5422 16.9491 14.4376Z" fill="white"/>
<defs>
<radialGradient id="paint0_radial_31_1752" cx="0" cy="0" r="1" gradientUnits="userSpaceOnUse" gradientTransform="translate(11.0092 11) scale(11)">
<stop stop-color="#E64442"/>
<stop offset="1" stop-color="#CD2300"/>
</radialGradient>
</defs>
</svg>
