<svg width="22" height="22" viewBox="0 0 22 22" fill="none" xmlns="http://www.w3.org/2000/svg">
<path d="M21.9978 10.2467C22.0007 10.2046 22.0007 10.1624 21.9978 10.1203C22.0005 10.0764 22.0005 10.0324 21.9978 9.98844C21.9978 9.7467 21.9483 9.51045 21.9098 9.2742H19.2481C19.1204 9.27419 18.9952 9.31031 18.8872 9.37837C18.7792 9.44643 18.6927 9.54365 18.6376 9.65879L17.7467 11.4609L16.6853 6.98311C16.6466 6.83153 16.5572 6.6977 16.432 6.60376C16.3068 6.50982 16.1532 6.46141 15.9967 6.46654C15.8402 6.47167 15.6901 6.53002 15.5714 6.63195C15.4526 6.73388 15.3722 6.87328 15.3435 7.02707L14.535 11.785L13.7101 4.64258C13.6911 4.47554 13.611 4.32141 13.4851 4.20984C13.3592 4.09827 13.1965 4.03715 13.0282 4.03822C12.8605 4.03728 12.6985 4.0986 12.5735 4.21027C12.4485 4.32194 12.3695 4.476 12.3518 4.64258L10.8504 17.4441C10.842 17.5084 10.8464 17.5737 10.8635 17.6363C10.8805 17.6988 10.9098 17.7574 10.9498 17.8085C10.9897 17.8596 11.0394 17.9023 11.096 17.9341C11.1526 17.9658 11.2149 17.986 11.2794 17.9935H11.3399C11.4604 17.9931 11.5765 17.9487 11.6666 17.8688C11.7568 17.7889 11.8146 17.6789 11.8293 17.5595L13.0282 7.2853L13.8036 13.9717C13.8275 14.1312 13.9067 14.2771 14.0274 14.384C14.1481 14.491 14.3027 14.5521 14.4639 14.5567C14.6252 14.5613 14.783 14.509 14.9096 14.4091C15.0362 14.3092 15.1236 14.168 15.1565 14.0102L16.0694 8.63138L16.9823 12.4773C17.0154 12.6138 17.0896 12.7369 17.195 12.8299C17.3003 12.9229 17.4316 12.9815 17.5712 12.9977C17.7109 13.0138 17.8521 12.9868 17.9759 12.9203C18.0997 12.8538 18.2002 12.751 18.2637 12.6257L19.4405 10.2412H20.7549C20.7549 10.4884 20.7549 10.7411 20.7549 10.9939C20.7364 13.343 19.8701 15.6066 18.3152 17.369C16.7604 19.1313 14.6213 20.2741 12.2909 20.5874C9.96043 20.9007 7.59507 20.3636 5.62918 19.0746C3.6633 17.7856 2.22888 15.8313 1.58936 13.5707H0.30249C0.930313 16.1898 2.49906 18.4874 4.71081 20.0271C6.92256 21.5668 9.62329 22.2414 12.3001 21.9228C14.9769 21.6042 17.4434 20.3145 19.2312 18.2988C21.0189 16.283 22.0035 13.6816 21.9978 10.9884C21.9978 10.7466 21.9978 10.4939 21.9978 10.2467Z" fill="#27EA84"/>
<path d="M10.9989 -1.77642e-05C8.08179 -1.77642e-05 5.28419 1.15769 3.2215 3.21841C1.15881 5.27914 0 8.07408 0 10.9884H0C0 11.2411 0 11.4939 0.0274972 11.7411C0.0245737 11.7923 0.0245737 11.8437 0.0274972 11.8949C0.0274972 11.8949 0.0274972 11.9554 0.0274972 11.9828L0.0604938 12.2685C0.0604938 12.4169 0.0989899 12.5652 0.120988 12.7136H2.74972C2.87743 12.7136 3.00254 12.6775 3.11057 12.6094C3.21859 12.5413 3.30513 12.4441 3.36016 12.329L4.25107 10.5269L5.33446 15.0321C5.37318 15.1837 5.46254 15.3175 5.58776 15.4115C5.71298 15.5054 5.86655 15.5538 6.02306 15.5487C6.17957 15.5436 6.32963 15.4852 6.44843 15.3833C6.56722 15.2814 6.64762 15.142 6.67632 14.9882L7.48474 10.2302L8.30965 17.3727C8.32865 17.5397 8.4088 17.6938 8.53468 17.8054C8.66057 17.917 8.8233 17.9781 8.99158 17.977C9.15926 17.978 9.3213 17.9166 9.44629 17.805C9.57128 17.6933 9.65029 17.5392 9.66801 17.3727L11.1694 4.55468C11.1837 4.48741 11.1838 4.41789 11.1697 4.35057C11.1556 4.28325 11.1277 4.2196 11.0876 4.1637C11.0475 4.1078 10.9961 4.06087 10.9368 4.02591C10.8775 3.99095 10.8116 3.96873 10.7432 3.96067C10.6749 3.95262 10.6056 3.95889 10.5398 3.97911C10.474 3.99932 10.4131 4.03303 10.3611 4.07807C10.3091 4.12312 10.267 4.17851 10.2376 4.24071C10.2083 4.30291 10.1922 4.37054 10.1905 4.4393L8.98608 14.708L8.21616 8.02152C8.19951 7.85635 8.12307 7.70293 8.0012 7.59009C7.87933 7.47724 7.72041 7.41274 7.55429 7.40869C7.38817 7.40465 7.22629 7.46133 7.09906 7.5681C6.97182 7.67488 6.88799 7.82439 6.8633 7.98855L5.94489 13.3619L5.03749 9.51594C4.99565 9.33905 4.88534 9.18595 4.73071 9.09017C4.57609 8.99439 4.38976 8.96376 4.21257 9.00498C4.11397 9.02862 4.02165 9.07326 3.94192 9.13584C3.86219 9.19843 3.79693 9.27748 3.75062 9.3676L2.57924 11.7466H1.26487C1.26487 11.4993 1.23187 11.2466 1.23187 10.9939C1.23449 8.63061 2.09504 6.34851 3.65387 4.57095C5.2127 2.79339 7.36398 1.64104 9.70862 1.32769C12.0533 1.01434 14.4321 1.56126 16.4038 2.86699C18.3754 4.17271 19.8061 6.1486 20.4304 8.42809H21.7118C21.1353 6.02419 19.7643 3.88471 17.8204 2.35538C15.8765 0.826049 13.4732 -0.00378249 10.9989 -1.77642e-05Z" fill="#27EA84"/>
</svg>
