<svg xmlns="http://www.w3.org/2000/svg" width="502" height="143" viewBox="0 0 502 143">
  <g id="그룹_8221" data-name="그룹 8221" transform="translate(2777 10900)">
    <rect id="사각형_3384" data-name="사각형 3384" width="502" height="143" transform="translate(-2777 -10900)" fill="none"/>
    <g id="WEMIX_logo_가로형" data-name="WEMIX logo 가로형" transform="translate(-2842 -10968.002)">
      <g id="그룹_1557" data-name="그룹 1557" transform="translate(66 69.002)">
        <g id="그룹_799" data-name="그룹 799">
          <path id="패스_550" data-name="패스 550" d="M409.6,289.851h0c0-.011,0-.022,0-.033-.019-.27-.043-.539-.064-.808s-.044-.569-.07-.852c0-.022,0-.045-.006-.068h0q-.214-2.3-.571-4.554h-16.9a4.373,4.373,0,0,0-3.948,2.451l-5.7,11.551-6.8-28.69a4.4,4.4,0,0,0-8.622.274l-5.194,30.484-5.3-45.87a4.345,4.345,0,0,0-4.37-3.888h0a4.345,4.345,0,0,0-4.371,3.882L338.025,336a3.159,3.159,0,0,0,2.775,3.5,3.312,3.312,0,0,0,.372.022,3.162,3.162,0,0,0,3.138-2.791l7.717-65.82,4.946,42.823a4.4,4.4,0,0,0,8.711.233l5.869-34.449L377.4,304.2a4.4,4.4,0,0,0,8.231.93l7.545-15.278h8.428c.124,1.6.192,3.208.192,4.837a62.706,62.706,0,0,1-123.172,16.452H270.4a70.675,70.675,0,0,0,139.365-16.452C409.765,293.061,409.706,291.449,409.6,289.851Z" transform="translate(-268.461 -224.188)" fill="#27ea84"/>
          <path id="패스_551" data-name="패스 551" d="M334.573,163.921a70.576,70.576,0,0,0-70.652,70.5c0,1.626.063,3.238.173,4.837h0c.022.327.05.652.077.978.015.183.027.367.044.55q.084.935.192,1.861c0,.036.007.072.011.108h0q.166,1.417.387,2.818h16.9a4.373,4.373,0,0,0,3.948-2.451l5.7-11.551,6.8,28.69a4.4,4.4,0,0,0,8.622-.274l5.194-30.484,5.3,45.871a4.345,4.345,0,0,0,4.369,3.888h0a4.345,4.345,0,0,0,4.371-3.882l9.646-82.268a3.164,3.164,0,0,0-6.285-.733L321.659,258.2l-4.946-42.824a4.4,4.4,0,0,0-8.711-.233l-5.869,34.449-5.849-24.681a4.4,4.4,0,0,0-8.231-.93l-7.544,15.278h-8.434q-.184-2.395-.186-4.837a62.706,62.706,0,0,1,123.172-16.452h8.225A70.646,70.646,0,0,0,334.573,163.921Z" transform="translate(-263.921 -163.921)" fill="#27ea84"/>
        </g>
      </g>
      <g id="그룹_1558" data-name="그룹 1558" transform="translate(239.913 101.541)">
        <g id="WEMIX" data-name="WEMIX" transform="translate(0)" style="isolation: isolate">
          <g id="그룹_1556" data-name="그룹 1556" style="isolation: isolate">
            <path id="패스_7330"  fill="#ffffff"  data-name="패스 7330" d="M69.492,73.086H84.976v60.583q0,4.455,2.225,6.738a8.291,8.291,0,0,0,6.247,2.286q4.33,0,6.4-2.489a10.047,10.047,0,0,0,2.065-6.639V73.086H117.4v59.946a24.679,24.679,0,0,1-1.244,8,15.609,15.609,0,0,1-3.975,6.285,18.374,18.374,0,0,1-7.073,4.1,33.41,33.41,0,0,1-10.532,1.454q-7.23,0-11.405-2.026a15.12,15.12,0,0,1-5.937-4.519,15.175,15.175,0,0,1-5.942,4.519q-4.175,2.019-11.41,2.026a33.358,33.358,0,0,1-10.528-1.454,18.43,18.43,0,0,1-7.078-4.1,15.6,15.6,0,0,1-3.971-6.285,24.552,24.552,0,0,1-1.244-8V73.086H52.554v60.48a10.048,10.048,0,0,0,2.07,6.639q2.063,2.486,6.4,2.489a8.3,8.3,0,0,0,6.247-2.286q2.218-2.281,2.225-6.738Z" transform="translate(-37.065 -71.528)"/>
            <path id="패스_7331"  fill="#ffffff"  data-name="패스 7331" d="M57.416,73.086h41.3V83.271H72.9v22.023H97.17v10.181H72.9v25.659H99.751v10.181H57.416Z" transform="translate(38.102 -71.528)"/>
            <path id="패스_7332"  fill="#ffffff"  data-name="패스 7332" d="M101.432,91.965q0-4.462-2.22-6.743a8.314,8.314,0,0,0-6.247-2.281q-4.337,0-6.4,2.489a10.057,10.057,0,0,0-2.07,6.639v60.475H69.009V92.6A24.671,24.671,0,0,1,70.248,84.6a15.61,15.61,0,0,1,3.975-6.285,18.386,18.386,0,0,1,7.073-4.1,33.4,33.4,0,0,1,10.532-1.459q7.23,0,11.41,2.03a15.155,15.155,0,0,1,5.937,4.519,15.14,15.14,0,0,1,5.942-4.519q4.175-2.026,11.405-2.03a33.4,33.4,0,0,1,10.532,1.459,18.351,18.351,0,0,1,7.073,4.1A15.61,15.61,0,0,1,148.1,84.6a24.67,24.67,0,0,1,1.239,7.994v59.946H133.855V92.069a10.055,10.055,0,0,0-2.065-6.639q-2.063-2.493-6.4-2.489a8.314,8.314,0,0,0-6.247,2.281q-2.218,2.281-2.22,6.743v60.579H101.432Z" transform="translate(80.921 -72.756)"/>
            <path id="패스_7333"  fill="#ffffff"  data-name="패스 7333" d="M104.852,151.316H89.359V73.086h15.493Z" transform="translate(156.084 -71.528)"/>
            <path id="패스_7334"  fill="#ffffff"  data-name="패스 7334" d="M95.692,73.086h15.592L122.126,97.4l10.739-24.314h15.7l-18.69,38.65,19.412,39.58H133.174l-11.049-25.867-11.048,25.867H94.969l19.412-39.58Z" transform="translate(176.804 -71.528)"/>
          </g>
        </g>
      </g>
    </g>
  </g>
</svg>
